<svg id="Layer_1" enable-background="new 0 0 510 510" height="512" viewBox="0 0 510 510" width="512" xmlns="http://www.w3.org/2000/svg"><g><path id="XMLID_230_" d="m420 0c-20.885 0-39.115 0-60 0v165h15l15-15v-120h30z" fill="#00467d"/><path id="XMLID_2144_" d="m120 300h-90v-120h30v90h60z" fill="#3b6bab"/><path id="XMLID_2147_" d="m480 300h-90v-30h60v-90h30z" fill="#00467d"/><path id="XMLID_4413_" d="m315 230-60 10h-75v-60h75l60 10z" fill="#3b6bab"/><path id="XMLID_2151_" d="m255 180h75v60h-75z" fill="#00467d"/><path id="XMLID_229_" d="m390 375-135 15h-150v-165h150l135 15z" fill="#fa686c"/><path id="XMLID_2155_" d="m255 225h150v165h-150z" fill="#e40c57"/><path id="XMLID_228_" d="m195 510h-103.242l-7.5-60 9.125-15-12.875-15-7.5-60h121.992v60l-9 15 9 15z" fill="#3b6bab"/><path id="XMLID_2159_" d="m80.508 420 3.75 30h110.742v-30z" fill="#00467d"/><path id="XMLID_227_" d="m433.242 510h-103.242v-60l12-15-12-15v-60h121.992l-7.5 60-12.875 15 9.125 15z" fill="#00467d"/><path id="XMLID_2163_" d="m330 420v30h110.742l3.75-30z" fill="#033a5d"/><path id="XMLID_2166_" d="m90 195h-90v-90h30v60h30v-60h30z" fill="#fa686c"/><path id="XMLID_2169_" d="m510 195h-90v-90h30v60h30v-60h30z" fill="#e40c57"/><path id="XMLID_2172_" d="m180 285h165v30h-165z" fill="#fee682"/><path id="XMLID_2175_" d="m255 285h90v30h-90z" fill="#fdd742"/><path id="XMLID_200_" d="m375 180-120 15h-135v-45c0-74.439 60.561-135 135-135s120 60.561 120 135z" fill="#fa686c"/><path id="XMLID_2179_" d="m255 15v180h135v-45c0-74.439-60.56-135-135-135z" fill="#e40c57"/><path id="XMLID_2182_" d="m150 165h210v-15c0-57.897-47.103-105-105-105s-105 47.103-105 105z" fill="#ecf4fe"/><path id="XMLID_2185_" d="m255 45v120h105v-15c0-57.897-47.103-105-105-105z" fill="#d4e7fd"/><path id="XMLID_2188_" d="m195 105h30v30h-30z" fill="#3b6bab"/><path id="XMLID_2191_" d="m285 105h30v30h-30z" fill="#00467d"/></g></svg>